<svg xmlns="http://www.w3.org/2000/svg" viewBox="0 0 512 512" width="512" height="512">
  <defs>
    <linearGradient id="bg" x1="0" y1="0" x2="1" y2="1">
      <stop offset="0" stop-color="#4f8cff"/>
      <stop offset="1" stop-color="#34d399"/>
    </linearGradient>
  </defs>
  <rect width="512" height="512" rx="112" fill="url(#bg)"/>
  <g fill="#ffffff">
    <!-- shopping bag -->
    <path d="M150 196h212a16 16 0 0 1 15.9 17.7l-20 180A28 28 0 0 1 330 419H182a28 28 0 0 1-27.9-25.3l-20-180A16 16 0 0 1 150 196z" opacity="0.95"/>
    <path d="M256 120c-39.8 0-72 32.2-72 72v20h36v-20c0-19.9 16.1-36 36-36s36 16.1 36 36v20h36v-20c0-39.8-32.2-72-72-72z"/>
    <!-- download arrow -->
    <path d="M256 250a16 16 0 0 1 16 16v54l16-16a16 16 0 1 1 22.6 22.6l-43.3 43.3a16 16 0 0 1-22.6 0l-43.3-43.3A16 16 0 1 1 224 304l16 16v-54a16 16 0 0 1 16-16z" fill="#0b3a2e"/>
  </g>
</svg>
